<?xml version="1.0" encoding="UTF-8" standalone="no"?>
<svg
   id="Layer_5"
   class="logo"
   width="300"
   height="118"
   viewBox="0 0 288.45 113.58"
   version="1.1"
   xmlns="http://www.w3.org/2000/svg"
   xmlns:svg="http://www.w3.org/2000/svg">
  <defs
     id="defs134">
    <style
       id="style132">
                    .cls-1,
                    .cls-2 {
                        fill: none;
                        stroke: #231f20;
                        stroke-miterlimit: 10;
                        stroke-width: 3px;
                    }

                    .cls-3 {
                        fill: #231f20;
                    }

                    .cls-2 {
                        stroke-linecap: square;
                    }
                </style>
  </defs>
  <polyline
     class="cls-1"
     points="223.88 83.62 287.32 83.62 287.32 3.31 207 83.62 143.97 83.62"
     id="polyline136" />
  <g
     id="g206">
    <path
       class="cls-3"
       d="m 7.08,103.71 v 8.98 l -5.59,-5.47 v 5.43 H 0 v -8.97 l 5.59,5.47 v -5.43 h 1.49 z"
       id="path138" />
    <path
       class="cls-3"
       d="m 17.07,112.65 h -1.61 l -0.62,-1.48 h -3.06 l -0.62,1.48 H 9.54 l 3.78,-9.01 z m -2.85,-2.97 -0.9,-2.17 -0.91,2.17 z"
       id="path140" />
    <path
       class="cls-3"
       d="m 26.14,103.71 v 5.64 c 0,1.83 -1.48,3.31 -3.31,3.31 -1.83,0 -3.31,-1.48 -3.31,-3.31 v -5.64 h 1.49 v 5.64 c 0,1 0.81,1.82 1.82,1.82 1.01,0 1.82,-0.81 1.82,-1.82 v -5.64 z"
       id="path142" />
    <path
       class="cls-3"
       d="m 34.07,103.71 v 1.49 h -1.99 v 7.45 H 30.59 V 105.2 H 28.6 v -1.49 z"
       id="path144" />
    <path
       class="cls-3"
       d="m 36.52,112.65 v -8.94 h 1.49 v 8.94 z"
       id="path146" />
    <path
       class="cls-3"
       d="m 48.02,111.42 c -1.77,1.68 -4.55,1.64 -6.26,-0.1 -1.71,-1.74 -1.72,-4.52 -0.01,-6.27 1.7,-1.74 4.49,-1.8 6.26,-0.13 L 46.99,106 c -1.18,-1.12 -3.04,-1.08 -4.18,0.08 -1.14,1.16 -1.13,3.02 0,4.18 1.14,1.16 3,1.19 4.18,0.07 l 1.03,1.08 z"
       id="path148" />
    <path
       class="cls-3"
       d="m 57.35,112.65 h -1.61 l -0.62,-1.48 h -3.06 l -0.62,1.48 h -1.62 l 3.78,-9.01 z m -2.85,-2.97 -0.9,-2.17 -0.91,2.17 z"
       id="path150" />
    <path
       class="cls-3"
       d="m 65.03,111.16 v 1.49 h -5.22 v -8.94 h 1.49 v 7.45 z"
       id="path152" />
    <path
       class="cls-3"
       d="m 79.7,111.42 c -1.77,1.68 -4.55,1.64 -6.26,-0.1 -1.71,-1.74 -1.72,-4.52 -0.01,-6.27 1.7,-1.74 4.49,-1.8 6.26,-0.13 L 78.67,106 c -1.18,-1.12 -3.04,-1.08 -4.18,0.08 -1.14,1.16 -1.13,3.02 0,4.18 1.14,1.16 3,1.19 4.18,0.07 l 1.03,1.08 z"
       id="path154" />
    <path
       class="cls-3"
       d="m 89.13,112.65 h -1.81 l -2.56,-3.72 h -1.11 v 3.72 h -1.49 v -8.94 h 3.85 c 1.34,0 2.46,1.02 2.59,2.35 0.13,1.33 -0.76,2.55 -2.07,2.82 l 2.6,3.78 z m -3.12,-5.22 c 0.41,0.01 0.79,-0.2 1,-0.55 0.21,-0.35 0.21,-0.79 0,-1.14 -0.21,-0.35 -0.59,-0.56 -1,-0.55 h -2.36 v 2.24 z"
       id="path156" />
    <path
       class="cls-3"
       d="m 91.58,112.65 v -8.94 h 1.49 v 8.94 z"
       id="path158" />
    <path
       class="cls-3"
       d="m 103.73,103.71 v 8.94 h -1.49 v -3.97 l -2.61,3.96 -2.61,-3.96 v 3.97 h -1.49 v -8.94 l 4.1,6.22 z"
       id="path160" />
    <path
       class="cls-3"
       d="m 107.69,105.2 v 2.24 h 3.46 v 1.49 h -3.46 v 2.23 h 4.08 v 1.49 h -5.57 v -8.94 h 5.57 v 1.49 z"
       id="path162" />
    <path
       class="cls-3"
       d="m 118.88,112.65 v -8.94 h 1.49 v 8.94 z"
       id="path164" />
    <path
       class="cls-3"
       d="m 129.92,103.71 v 8.98 l -5.59,-5.47 v 5.43 h -1.49 v -8.97 l 5.59,5.47 v -5.43 h 1.49 z"
       id="path166" />
    <path
       class="cls-3"
       d="m 139.89,103.71 -3.77,8.99 -3.74,-8.99 h 1.61 l 2.13,5.12 2.15,-5.12 z"
       id="path168" />
    <path
       class="cls-3"
       d="m 143.84,105.2 v 2.24 h 3.46 v 1.49 h -3.46 v 2.23 h 4.08 v 1.49 h -5.57 v -8.94 h 5.57 v 1.49 z"
       id="path170" />
    <path
       class="cls-3"
       d="m 155.75,110.08 v 0.04 c 0,1.38 -1.12,2.49 -2.49,2.49 h -0.39 c -1.21,0 -2.25,-0.87 -2.46,-2.06 l 1.47,-0.25 c 0.08,0.48 0.5,0.83 0.99,0.83 h 0.39 c 0.55,0 1,-0.45 1,-1 v -0.04 c 0,-0.42 -0.26,-0.79 -0.65,-0.94 l -1.62,-0.61 c -1.13,-0.42 -1.79,-1.59 -1.58,-2.78 0.21,-1.19 1.25,-2.05 2.45,-2.05 h 0.39 c 0.95,0 1.82,0.54 2.24,1.39 l -1.34,0.66 c -0.17,-0.34 -0.52,-0.56 -0.9,-0.56 h -0.39 c -0.48,0 -0.9,0.35 -0.99,0.82 -0.09,0.47 0.18,0.95 0.63,1.12 l 1.62,0.61 c 0.97,0.37 1.61,1.3 1.62,2.33 z"
       id="path172" />
    <path
       class="cls-3"
       d="m 163.67,103.71 v 1.49 h -1.99 v 7.45 h -1.49 v -7.45 h -1.99 v -1.49 z"
       id="path174" />
    <path
       class="cls-3"
       d="m 166.12,112.65 v -8.94 h 1.49 v 8.94 z"
       id="path176" />
    <path
       class="cls-3"
       d="m 177.87,107.44 v 3.77 l -0.23,0.22 c -1.77,1.68 -4.56,1.64 -6.27,-0.1 -1.71,-1.74 -1.72,-4.53 -0.01,-6.27 1.71,-1.74 4.49,-1.8 6.27,-0.13 l -1.02,1.08 c -1.15,-1.09 -2.96,-1.08 -4.11,0.01 -1.15,1.1 -1.24,2.9 -0.2,4.1 1.04,1.2 2.83,1.39 4.09,0.42 v -1.62 h -1.82 v -1.49 h 3.31 z"
       id="path178" />
    <path
       class="cls-3"
       d="m 187.85,112.65 h -1.61 l -0.62,-1.48 h -3.06 l -0.62,1.48 h -1.62 l 3.78,-9.01 z m -2.85,-2.97 -0.9,-2.17 -0.91,2.17 z"
       id="path180" />
    <path
       class="cls-3"
       d="m 194.47,103.71 v 1.49 h -1.99 v 7.45 h -1.49 V 105.2 H 189 v -1.49 z"
       id="path182" />
    <path
       class="cls-3"
       d="m 196.92,112.65 v -8.94 h 1.49 v 8.94 z"
       id="path184" />
    <path
       class="cls-3"
       d="m 209.82,108.18 c 0,2.47 -2,4.47 -4.47,4.47 -2.47,0 -4.47,-2 -4.47,-4.47 0,-2.47 2,-4.47 4.47,-4.47 2.47,0 4.47,2 4.47,4.47 z m -1.49,0 c 0,-1.65 -1.33,-2.98 -2.98,-2.98 -1.65,0 -2.98,1.33 -2.98,2.98 0,1.65 1.33,2.98 2.98,2.98 1.65,0 2.98,-1.34 2.98,-2.98 z"
       id="path186" />
    <path
       class="cls-3"
       d="m 219.35,103.71 v 8.98 l -5.59,-5.47 v 5.43 h -1.49 v -8.97 l 5.59,5.47 v -5.43 h 1.49 z"
       id="path188" />
    <path
       class="cls-3"
       d="m 231.86,110.08 v 0.04 c 0,1.38 -1.12,2.49 -2.49,2.49 h -0.39 c -1.21,0 -2.25,-0.87 -2.46,-2.06 l 1.47,-0.25 c 0.08,0.48 0.5,0.83 0.99,0.83 h 0.39 c 0.55,0 1,-0.45 1,-1 v -0.04 c 0,-0.42 -0.26,-0.79 -0.65,-0.94 l -1.62,-0.61 c -1.13,-0.42 -1.79,-1.59 -1.58,-2.78 0.21,-1.19 1.25,-2.05 2.45,-2.05 h 0.39 c 0.95,0 1.82,0.54 2.24,1.39 l -1.34,0.66 c -0.17,-0.34 -0.52,-0.56 -0.9,-0.56 h -0.39 c -0.48,0 -0.9,0.35 -0.99,0.82 -0.09,0.47 0.18,0.95 0.63,1.12 l 1.62,0.61 c 0.97,0.37 1.61,1.3 1.62,2.33 z"
       id="path190" />
    <path
       class="cls-3"
       d="m 235.81,105.2 v 2.24 h 3.46 v 1.49 h -3.46 v 2.23 h 4.08 v 1.49 h -5.57 v -8.94 h 5.57 v 1.49 z"
       id="path192" />
    <path
       class="cls-3"
       d="m 249.31,112.65 h -1.81 l -2.56,-3.72 h -1.11 v 3.72 h -1.49 v -8.94 h 3.85 c 1.34,0 2.46,1.02 2.59,2.35 0.13,1.33 -0.76,2.55 -2.07,2.82 l 2.6,3.78 z m -3.12,-5.22 c 0.41,0.01 0.79,-0.2 1,-0.55 0.21,-0.35 0.21,-0.79 0,-1.14 -0.21,-0.35 -0.59,-0.56 -1,-0.55 h -2.36 v 2.24 z"
       id="path194" />
    <path
       class="cls-3"
       d="m 258.63,103.71 -3.77,8.99 -3.74,-8.99 h 1.61 l 2.13,5.12 2.15,-5.12 z"
       id="path196" />
    <path
       class="cls-3"
       d="m 261.09,112.65 v -8.94 h 1.49 v 8.94 z"
       id="path198" />
    <path
       class="cls-3"
       d="m 272.59,111.42 c -1.77,1.68 -4.55,1.64 -6.26,-0.1 -1.71,-1.74 -1.72,-4.52 -0.01,-6.27 1.7,-1.74 4.49,-1.8 6.26,-0.13 l -1.02,1.08 c -1.18,-1.12 -3.04,-1.08 -4.18,0.08 -1.14,1.16 -1.13,3.02 0,4.18 1.14,1.16 3,1.19 4.18,0.07 l 1.03,1.08 z"
       id="path200" />
    <path
       class="cls-3"
       d="m 276.54,105.2 v 2.24 H 280 v 1.49 h -3.46 v 2.23 h 4.08 v 1.49 h -5.57 v -8.94 h 5.57 v 1.49 z"
       id="path202" />
    <path
       class="cls-3"
       d="m 288.45,110.08 v 0.04 c 0,1.38 -1.12,2.49 -2.49,2.49 h -0.39 c -1.21,0 -2.25,-0.87 -2.46,-2.06 l 1.47,-0.25 c 0.08,0.48 0.5,0.83 0.99,0.83 h 0.39 c 0.55,0 1,-0.45 1,-1 v -0.04 c 0,-0.42 -0.26,-0.79 -0.65,-0.94 l -1.62,-0.61 c -1.13,-0.42 -1.79,-1.59 -1.58,-2.78 0.21,-1.19 1.25,-2.05 2.45,-2.05 h 0.39 c 0.95,0 1.82,0.54 2.24,1.39 l -1.34,0.66 c -0.17,-0.34 -0.52,-0.56 -0.9,-0.56 h -0.39 c -0.48,0 -0.9,0.35 -0.99,0.82 -0.09,0.47 0.18,0.95 0.63,1.12 l 1.62,0.61 c 0.97,0.37 1.61,1.3 1.62,2.33 z"
       id="path204" />
  </g>
  <polyline
     class="cls-1"
     points="80.63 83.83 .99 3.62 .99 83.62"
     id="polyline208" />
  <line
     class="cls-2"
     x1="81"
     y1="3.6199999"
     x2="81.080002"
     y2="83.379997"
     id="line210" />
  <path
     class="cls-1"
     d="M 140.94,83.62 H 121 c -22.09,0 -40,-17.91 -40,-40 0,-22.09 17.91,-40 40,-40 h 19.94"
     id="path212" />
  <line
     class="cls-1"
     x1="143.96001"
     y1="3.6199999"
     x2="207"
     y2="3.6199999"
     id="line214" />
  <line
     class="cls-1"
     x1="174.74001"
     y1="3.6199999"
     x2="174.74001"
     y2="83.709999"
     id="line216" />
</svg>
